<svg xmlns="http://www.w3.org/2000/svg" width="24.445" height="21" viewBox="0 0 24.445 21"><defs><style>.a{fill:#262626;}</style></defs><g transform="translate(0 -6.952)"><g transform="translate(0 6.952)"><circle class="a" cx="2.551" cy="2.551" r="2.551" transform="translate(9.671 8.995)"/><path class="a" d="M37.211,64.556H35.046a3.27,3.27,0,0,0-3.266,3.266V70.47l.007.041.182.057a14.867,14.867,0,0,0,4.441.716,9.128,9.128,0,0,0,3.877-.728l.17-.087h.018V67.822A3.268,3.268,0,0,0,37.211,64.556Z" transform="translate(-23.907 -50.285)"/><circle class="a" cx="4.115" cy="4.115" r="4.115" transform="translate(2.899 0)"/><path class="a" d="M57.855,15.183a4.115,4.115,0,1,0-4.115-4.116A4.116,4.116,0,0,0,57.855,15.183Z" transform="translate(-40.426 -6.952)"/><path class="a" d="M10.222,46.663a3.062,3.062,0,0,1,.478-4.985A5.231,5.231,0,0,0,8.761,41.3H5.269A5.275,5.275,0,0,0,0,46.573v4.271l.011.067L.3,51a24.026,24.026,0,0,0,7.05,1.154V50.331A3.788,3.788,0,0,1,10.222,46.663Z" transform="translate(0 -32.793)"/><path class="a" d="M60.911,41.3H57.419a5.229,5.229,0,0,0-1.938.374,3.061,3.061,0,0,1,.479,4.984,3.781,3.781,0,0,1,2.865,3.669v1.825A24.03,24.03,0,0,0,65.876,51l.294-.091.011-.067V46.572A5.277,5.277,0,0,0,60.911,41.3Z" transform="translate(-41.736 -32.793)"/></g></g></svg>