<svg xmlns="http://www.w3.org/2000/svg" width="20.462" height="24" viewBox="0 0 20.462 24"><g transform="translate(-66.244)"><path d="M325.666,204.116a1.8,1.8,0,1,0-1.8-1.8A1.8,1.8,0,0,0,325.666,204.116Z" transform="translate(-250.739 -195.156)"/><path d="M69.11,20.918v2.414a.668.668,0,0,0,.668.668H79.17a.668.668,0,0,0,.668-.668V20.98H82.46a1.911,1.911,0,0,0,1.907-1.907V15.735l1.536-.029a.817.817,0,0,0,.708-1.2l-1.677-3.162a4.88,4.88,0,0,1-.569-2.286h0a9.06,9.06,0,1,0-17.131,4.115A16.969,16.969,0,0,1,69.11,20.918ZM70.128,6.845a.422.422,0,0,1,.259-.39l.988-.422A.44.44,0,0,0,71.6,5.8a.213.213,0,0,0,.013-.037.423.423,0,0,0,0-.323l-.406-.985a.424.424,0,0,1,.093-.462l.451-.451a.425.425,0,0,1,.459-.093l1,.4a.442.442,0,0,0,.32,0l.027-.011a.431.431,0,0,0,.238-.232l.414-.991a.428.428,0,0,1,.393-.262h.638a.422.422,0,0,1,.39.259l.427,1a.43.43,0,0,0,.232.227.038.038,0,0,0,.016.005.418.418,0,0,0,.326,0l1-.411a.424.424,0,0,1,.462.093l.451.451a.425.425,0,0,1,.093.459l-.406,1.015a.429.429,0,0,0,0,.32s0,.005,0,.008a.431.431,0,0,0,.232.238l1,.419a.428.428,0,0,1,.262.393V7.47a.422.422,0,0,1-.259.39l-1.009.43a.431.431,0,0,0-.23.235l-.005.013a.422.422,0,0,0,0,.318l.417,1a.419.419,0,0,1-.093.462l-.451.451a.425.425,0,0,1-.459.093l-1.015-.406a.429.429,0,0,0-.32,0l-.019.008a.434.434,0,0,0-.232.23l-.411,1a.428.428,0,0,1-.393.262h-.638a.422.422,0,0,1-.39-.259l-.425-.993a.423.423,0,0,0-.24-.23l-.027-.011a.442.442,0,0,0-.32,0l-.991.409a.424.424,0,0,1-.462-.093l-.451-.451a.425.425,0,0,1-.093-.459l.4-1a.423.423,0,0,0,0-.323l-.016-.037a.419.419,0,0,0-.232-.235l-.983-.409a.428.428,0,0,1-.262-.393V6.845h0Z" transform="translate(0 0)"/></g></svg>