<svg xmlns="http://www.w3.org/2000/svg" width="17.674" height="21" viewBox="0 0 17.674 21"><g transform="translate(-33.908)"><g transform="translate(33.908 0)"><path d="M51.559,5.405c-.025-.552-.025-1.08-.025-1.607a.74.74,0,0,0-.753-.753A10.09,10.09,0,0,1,43.272.207a.775.775,0,0,0-1.055,0,10.09,10.09,0,0,1-7.509,2.838.74.74,0,0,0-.753.753c0,.527,0,1.055-.025,1.607-.1,5.274-.251,12.506,8.563,15.544l.251.05L43,20.95C51.785,17.911,51.66,10.7,51.559,5.405Zm-9.417,7.308a.81.81,0,0,1-.527.2H41.59a.707.707,0,0,1-.527-.251l-2.335-2.587,1.13-1,1.833,2.034,4.068-3.867,1.03,1.1Z" transform="translate(-33.908 0)"/></g></g></svg>