<svg xmlns="http://www.w3.org/2000/svg" width="24.059" height="24" viewBox="0 0 24.059 24"><defs><style>.a{fill:#262626;}</style></defs><g transform="translate(0 -0.032)"><path class="a" d="M17.582,23.107v.925H6.477v-.925a.927.927,0,0,1,.925-.925H9.266A2.761,2.761,0,0,1,11.1,19.693V8.843a1.735,1.735,0,0,1-.814-1.469h3.479a1.735,1.735,0,0,1-.814,1.469V19.692a2.761,2.761,0,0,1,1.839,2.488h1.863A.928.928,0,0,1,17.582,23.107Zm6.477-8.329a4.9,4.9,0,0,1-9.254,0h1.068L19,6.493a.482.482,0,0,1,.866,0l3.126,8.285h1.068Zm-2.057,0-2.57-6.81-2.57,6.811H22ZM4.627,5.534a.922.922,0,0,0,.879-.661,10.165,10.165,0,0,0,.942-.437,5.421,5.421,0,0,1,2.343-.763,2.068,2.068,0,0,1,1.585.684,1.736,1.736,0,0,0-.024.242,1.678,1.678,0,1,0,3.355,0,1.723,1.723,0,0,0-.024-.241,2.069,2.069,0,0,1,1.585-.685,5.412,5.412,0,0,1,2.342.762,10.29,10.29,0,0,0,.943.437.922.922,0,0,0,.879.661.935.935,0,1,0-.675-1.575c-.229-.1-.476-.219-.73-.348a6.113,6.113,0,0,0-2.759-.862,2.959,2.959,0,0,0-2,.728,1.672,1.672,0,0,0-.729-.468,1.086,1.086,0,0,0,.588-.955c0-.606-1.1-2.021-1.1-2.021s-1.1,1.415-1.1,2.021a1.085,1.085,0,0,0,.588.955,1.663,1.663,0,0,0-.729.468,2.959,2.959,0,0,0-2-.728,6.116,6.116,0,0,0-2.76.862c-.254.13-.5.253-.729.348a.933.933,0,1,0-.675,1.576Zm0,12.532A4.917,4.917,0,0,1,0,14.778H1.068L4.194,6.494a.482.482,0,0,1,.866,0l3.126,8.285H9.254A4.917,4.917,0,0,1,4.627,18.066ZM7.2,14.778l-2.57-6.81-2.57,6.811H7.2Z"/></g></svg>