<svg xmlns="http://www.w3.org/2000/svg" width="24" height="24" viewBox="0 0 24 24"><g transform="translate(0 0)"><path d="M.7,395.719h12.75a.7.7,0,0,0,.7-.7v-.75a1.406,1.406,0,0,0-1.406-1.406v-.841A2.021,2.021,0,0,0,10.731,390H3.425a2.021,2.021,0,0,0-2.019,2.019v.841A1.406,1.406,0,0,0,0,394.266v.75A.7.7,0,0,0,.7,395.719Zm0,0" transform="translate(0 -371.719)"/><path d="M95.932,170.358a1.406,1.406,0,0,0,2.246-1.693l-4.232-5.615a1.406,1.406,0,1,0-2.246,1.693Zm0,0" transform="translate(-87.132 -154.873)"/><path d="M311.565,7.868a1.406,1.406,0,0,0,2.246-1.693L309.579.56a1.406,1.406,0,1,0-2.246,1.693Zm0,0" transform="translate(-292.657 0)"/><path d="M170.185,65.626a7.626,7.626,0,0,0,2.307-2.78l-4.924-6.534a7.851,7.851,0,0,0-5.615,4.231l4.924,6.534A7.627,7.627,0,0,0,170.185,65.626Zm0,0" transform="translate(-154.362 -53.673)"/><path d="M332.4,258.906a8.481,8.481,0,0,1-2.246,1.693l.917,1.217,2.246-1.692Zm0,0" transform="translate(-314.676 -246.77)"/><path d="M370.012,308.824l-2.246,1.692L372,316.132a1.406,1.406,0,1,0,2.246-1.693Zm0,0" transform="translate(-350.527 -294.348)"/></g></svg>