<svg xmlns="http://www.w3.org/2000/svg" width="637.491" height="504.883" viewBox="0 0 637.491 504.883">
  <path id="Intersection_1" data-name="Intersection 1" d="M1141.631,555.954v-297.4a14.578,14.578,0,1,0-29.155,0v297.4h-35.647V259.538a14.624,14.624,0,0,0-14.585-14.578c-.231,0-.462.005-.689.017v.049a14.609,14.609,0,0,0-13.866,13.7c0,.03,0,.059,0,.088a.023.023,0,0,0,0,.008c0,.027,0,.053,0,.08a.1.1,0,0,1,0,.018c0,.025,0,.049,0,.073a.194.194,0,0,0,0,.024c0,.022,0,.044,0,.066s0,.022,0,.033,0,.039,0,.058,0,.026,0,.038,0,.035,0,.053,0,.031,0,.047,0,.03,0,.044v.062c0,.01,0,.02,0,.03V555.954h-35.647V259.538a14.577,14.577,0,1,0-29.154,0V555.954H921.381l18.365-371.81H1184l18.365,371.81Zm61.761-361.218c-4.65-16.689-4.676-33.9,1.364-50.282a77.53,77.53,0,0,1,40.553-43.873c16.065-7.412,35.877-7.8,53.019-1.043,15.021,5.924,26.313,16.591,31.81,30.051,11.611,28.456,1.841,55.007-24.891,67.629-10.584,5-21.307,5.785-31.012,2.252a36.292,36.292,0,0,1-20.527-19.245c-3.106-6.73-3.278-15.671-.46-23.9,2.859-8.357,8.274-14.881,14.873-17.922a21.132,21.132,0,0,1,28.045,10.337,15.588,15.588,0,0,1-7.625,20.683,6.605,6.605,0,1,0,5.53,12,28.8,28.8,0,0,0,14.093-38.219,34.345,34.345,0,0,0-45.573-16.8c-9.86,4.544-17.823,13.9-21.842,25.647-3.952,11.545-3.6,23.838.953,33.724a49.448,49.448,0,0,0,28.014,26.123c12.909,4.692,27.527,3.731,41.177-2.72,27.536-13.008,47.956-44.2,31.48-84.573-6.87-16.829-20.79-30.091-39.2-37.348-20.429-8.053-44.128-7.56-63.4,1.331a91.094,91.094,0,0,0-52.943,79.2H937.659a91.149,91.149,0,0,0-5.531-27.89,92.549,92.549,0,0,0-4.484-10.23,90.6,90.6,0,0,0-42.93-41.079l-.218-.1-.089-.041-.243-.11-.125-.057-.136-.061-.025-.011a79.309,79.309,0,0,0-32.153-6.658h-.057a83.176,83.176,0,0,0-29.785,5.487c-.189.073-.377.146-.565.22-18.047,7.114-31.781,20-38.785,36.366q-.211.489-.411.982-.772,1.893-1.437,3.758c-13.755,38.547,6.242,68.214,32.918,80.815q.583.276,1.169.538a56.673,56.673,0,0,0,23.109,5.114h.05a49.317,49.317,0,0,0,16.4-2.773l.177-.063.048-.018.22-.079c.338-.123.676-.249,1.01-.379a49.5,49.5,0,0,0,27-25.744,42.043,42.043,0,0,0,3.686-17.591,50.007,50.007,0,0,0-2.731-16.132c-4.018-11.751-11.98-21.1-21.842-25.647a34.346,34.346,0,0,0-45.573,16.8,28.8,28.8,0,0,0,14.093,38.219c.041.019.08.037.122.055l.006,0a6.555,6.555,0,0,0,2.624.556h.033a6.609,6.609,0,0,0,2.938-12.518c-.065-.032-.129-.063-.193-.092a15.592,15.592,0,0,1-7.626-20.683A20.967,20.967,0,0,1,839.84,137.9c.122-.048.246-.095.37-.14l.115-.042a21.012,21.012,0,0,1,16.047.674,25.892,25.892,0,0,1,9.541,7.854,35.147,35.147,0,0,1,5.325,10.076,37.221,37.221,0,0,1,1.338,5.006c1.3,6.719.7,13.516-1.789,18.9a36.293,36.293,0,0,1-20.526,19.245c-9.706,3.533-20.429,2.744-31.014-2.252-19.266-9.1-29.721-25.428-29.712-44.493a61.387,61.387,0,0,1,4.822-23.136c5.5-13.46,16.788-24.127,31.809-30.051A70.107,70.107,0,0,1,860.4,95.277l.035,0,.184.024a66.155,66.155,0,0,1,9.92,2.057,61.58,61.58,0,0,1,8.648,3.218q1.553.716,3.065,1.493a77.483,77.483,0,0,1,37.487,42.379,78.757,78.757,0,0,1,3.464,40.963,93.645,93.645,0,0,1-2.1,9.32c-9.227,33.157-49.41,50.241-81.079,50.241a96.021,96.021,0,0,1-96-94.168q-.018-.928-.018-1.86,0-.574.007-1.145c.6-55.324,44.594-91,96.776-94.447,42.771-2.827,86.515-.517,129.459-.438l2.232,0h179.542c43.658,0,88.18-2.44,131.69.436,52.533,3.467,96.784,39.615,96.784,95.592a96.026,96.026,0,0,1-96.02,96.029C1252.8,244.977,1212.62,227.893,1203.392,194.736Z" transform="translate(-743.501 -51.57)" fill="#7c7c7c" stroke="rgba(0,0,0,0)" stroke-width="1" opacity="0.1"/>
</svg>
